<svg xmlns="http://www.w3.org/2000/svg" xmlns:xlink="http://www.w3.org/1999/xlink" width="2500" zoomAndPan="magnify" viewBox="0 0 1874.88 1874.999927" height="2500" preserveAspectRatio="xMidYMid meet" version="1.0"><defs><clipPath id="d3555e8755"><path d="M 17.203125 493.300781 L 1585.898438 493.300781 L 1585.898438 1381.691406 L 17.203125 1381.691406 Z M 17.203125 493.300781 " clip-rule="nonzero"/></clipPath><clipPath id="5e6b04f124"><path d="M 665.554688 493.546875 C 644.113281 493.546875 622.675781 495.460938 601.097656 499.421875 C 512.746094 515.535156 428.492188 555.683594 353.109375 603.613281 C 274.589844 653.457031 202.761719 715.179688 142.265625 785.78125 C 84.230469 853.511719 32.609375 934.902344 19.910156 1024.757812 C 7.210938 1114.609375 44.628906 1196.136719 112.90625 1253.898438 C 177.90625 1308.796875 260.117188 1344.027344 342.734375 1362.324219 C 405.003906 1376.117188 469.046875 1381.582031 532.957031 1381.582031 C 560.816406 1381.582031 588.671875 1380.488281 616.257812 1378.714844 C 712.804688 1372.160156 809.074219 1355.5 902.070312 1328.597656 C 995.066406 1301.695312 1085.878906 1265.097656 1175.460938 1228.226562 C 1264.632812 1191.492188 1353.53125 1152.027344 1436.828125 1103.140625 C 1476.703125 1079.789062 1516.851562 1054.253906 1549.488281 1021.207031 C 1571.476562 998.945312 1601.519531 957.023438 1575.027344 926.980469 C 1565.332031 932.988281 1556.179688 939.679688 1546.894531 946.234375 C 1485.582031 989.113281 1420.714844 1026.804688 1353.667969 1060.261719 C 1285.523438 1094.402344 1215.335938 1124.035156 1143.503906 1149.707031 C 1072.222656 1175.105469 999.4375 1196.683594 925.695312 1214.023438 C 851.273438 1231.503906 775.757812 1244.75 699.695312 1252.671875 C 653.128906 1257.449219 606.152344 1260.453125 559.3125 1260.453125 C 530.226562 1260.453125 501.003906 1259.363281 472.050781 1256.765625 C 403.363281 1250.757812 327.984375 1239.015625 269.675781 1199.824219 C 211.773438 1160.902344 186.511719 1096.3125 197.707031 1027.898438 C 209.179688 957.570312 250.148438 894.070312 295.484375 840.675781 C 342.597656 785.234375 397.492188 735.664062 457.441406 694.289062 C 472.324219 684.046875 487.347656 674.351562 502.914062 665.199219 C 556.582031 633.519531 616.394531 608.804688 679.347656 606.207031 C 682.898438 606.070312 686.3125 605.933594 689.863281 605.933594 C 720.996094 605.933594 751.996094 611.808594 780.808594 624.097656 C 812.488281 637.617188 840.894531 657.554688 868.613281 677.765625 L 872.4375 545.441406 C 848.8125 535.882812 825.191406 526.1875 801.15625 517.71875 C 756.636719 502.152344 711.300781 493.546875 665.554688 493.546875 Z M 665.554688 493.546875 " clip-rule="nonzero"/></clipPath><clipPath id="50d791ded5"><path d="M 0.203125 0.46875 L 1568.898438 0.46875 L 1568.898438 888.652344 L 0.203125 888.652344 Z M 0.203125 0.46875 " clip-rule="nonzero"/></clipPath><clipPath id="6f3d3ac529"><path d="M 648.554688 0.546875 C 627.113281 0.546875 605.675781 2.460938 584.097656 6.421875 C 495.746094 22.535156 411.492188 62.683594 336.109375 110.613281 C 257.589844 160.457031 185.761719 222.179688 125.265625 292.78125 C 67.230469 360.511719 15.609375 441.902344 2.910156 531.757812 C -9.789062 621.609375 27.628906 703.136719 95.90625 760.898438 C 160.90625 815.796875 243.117188 851.027344 325.734375 869.324219 C 388.003906 883.117188 452.046875 888.582031 515.957031 888.582031 C 543.816406 888.582031 571.671875 887.488281 599.257812 885.714844 C 695.804688 879.160156 792.074219 862.5 885.070312 835.597656 C 978.066406 808.695312 1068.878906 772.097656 1158.460938 735.226562 C 1247.632812 698.492188 1336.53125 659.027344 1419.828125 610.140625 C 1459.703125 586.789062 1499.851562 561.253906 1532.488281 528.207031 C 1554.476562 505.945312 1584.519531 464.023438 1558.027344 433.980469 C 1548.332031 439.988281 1539.179688 446.679688 1529.894531 453.234375 C 1468.582031 496.113281 1403.714844 533.804688 1336.667969 567.261719 C 1268.523438 601.402344 1198.335938 631.035156 1126.503906 656.707031 C 1055.222656 682.105469 982.4375 703.683594 908.695312 721.023438 C 834.273438 738.503906 758.757812 751.75 682.695312 759.671875 C 636.128906 764.449219 589.152344 767.453125 542.3125 767.453125 C 513.226562 767.453125 484.003906 766.363281 455.050781 763.765625 C 386.363281 757.757812 310.984375 746.015625 252.675781 706.824219 C 194.773438 667.902344 169.511719 603.3125 180.707031 534.898438 C 192.179688 464.570312 233.148438 401.070312 278.484375 347.675781 C 325.597656 292.234375 380.492188 242.664062 440.441406 201.289062 C 455.324219 191.046875 470.347656 181.351562 485.914062 172.199219 C 539.582031 140.519531 599.394531 115.804688 662.347656 113.207031 C 665.898438 113.070312 669.3125 112.933594 672.863281 112.933594 C 703.996094 112.933594 734.996094 118.808594 763.808594 131.097656 C 795.488281 144.617188 823.894531 164.554688 851.613281 184.765625 L 855.4375 52.441406 C 831.8125 42.882812 808.191406 33.1875 784.15625 24.71875 C 739.636719 9.152344 694.300781 0.546875 648.554688 0.546875 Z M 648.554688 0.546875 " clip-rule="nonzero"/></clipPath><clipPath id="39d2765547"><rect x="0" width="1569" y="0" height="889"/></clipPath><clipPath id="5f75d1bbe1"><path d="M 1584 717.398438 L 1858 717.398438 L 1858 963 L 1584 963 Z M 1584 717.398438 " clip-rule="nonzero"/></clipPath><clipPath id="bd39b81854"><path d="M 1661.332031 808.996094 L 1584.859375 865.53125 L 1685.226562 873.996094 L 1723.464844 962.757812 L 1757.332031 876.457031 L 1857.425781 874.816406 L 1778.085938 812.957031 L 1801.710938 723.238281 L 1718.683594 771.441406 L 1633.199219 717.640625 Z M 1661.332031 808.996094 " clip-rule="nonzero"/></clipPath><clipPath id="f5c21d8ed5"><path d="M 0.617188 0.613281 L 273.480469 0.613281 L 273.480469 245.878906 L 0.617188 245.878906 Z M 0.617188 0.613281 " clip-rule="nonzero"/></clipPath><clipPath id="6c1e1f9097"><path d="M 77.332031 91.996094 L 0.859375 148.53125 L 101.226562 156.996094 L 139.464844 245.757812 L 173.332031 159.457031 L 273.425781 157.816406 L 194.085938 95.957031 L 217.710938 6.238281 L 134.683594 54.441406 L 49.199219 0.640625 Z M 77.332031 91.996094 " clip-rule="nonzero"/></clipPath><clipPath id="5f05288e5b"><rect x="0" width="274" y="0" height="246"/></clipPath></defs><g clip-path="url(#d3555e8755)"><g clip-path="url(#5e6b04f124)"><g transform="matrix(1, 0, 0, 1, 17, 493)"><g clip-path="url(#39d2765547)"><g clip-path="url(#50d791ded5)"><g clip-path="url(#6f3d3ac529)"><rect x="-429.4736" width="2699.8272" fill="#bca05c" height="2699.999895" y="-905.499984" fill-opacity="1"/></g></g></g></g></g></g><g clip-path="url(#5f75d1bbe1)"><g clip-path="url(#bd39b81854)"><g transform="matrix(1, 0, 0, 1, 1584, 717)"><g clip-path="url(#5f05288e5b)"><g clip-path="url(#f5c21d8ed5)"><g clip-path="url(#6c1e1f9097)"><rect x="-1996.4736" width="2699.8272" fill="#bca05c" height="2699.999895" y="-1129.499984" fill-opacity="1"/></g></g></g></g></g></g></svg>